/* XPM */
static char *_e4ebc3f1a324e4babd62bf880165b09Mc03ixnihIW5XaD0[] = {
/* columns rows colors chars-per-pixel */
"64 64 5 1 ",
"  c None",
". c black",
"X c #C68C21",
"o c #5A528C",
"O c white",
/* pixels */
"                                                                ",
"                             .....o                             ",
"                  .        ..OOOOOO.      ..o                   ",
"                 .Oo      .OOO....OOo..  .OOO.o                 ",
"                 .O.     .OO..    .O.XX.. ..OOO..               ",
"                 .OO.  ..OO.     ..OOoX..   ..OOOo              ",
"       ....o      .Oo..OOO.   ....X.O.X..     .OO.              ",
"      .XXOO.      .OOOOoo. ...XXXXX.O....      ..Oo             ",
"      .XXOO.      .OOOOoo. ...XXXXX.O....      ..Oo             ",
"     .XXXOo        o.......XXXXXXXX.O.X..      ..O.             ",
"    .X.XXO.           ...XXXXXXXXXXXXXXXX.  ...OOO.             ",
"    .X.XXO.          .XXXXXXXXXXX..XXXXOO...OOOOO.              ",
"   .X....XOo        .XXXXXXXXX...OO.XXOOOO.OO......             ",
"   .X....XO.       .XXXXXXXXX.OOO...XXOOOO... .XXOO.            ",
"  .X.o...XO.      .XXXXXXXXXX.O.....XXOOOX.   .XXXXO.           ",
"  .X.o.oo.XX.    .XXXXXXXXXXXXX..O.XXXXOO..  .XXX..XX.          ",
"  .X.o.oo.XX.    .XXXXXXXXXXXXX..O.XXXXOO..  .XXX..XX.          ",
"  .X.o.oo.XXX..  .XXXXXXXXXXXXXXX.XXXXXXX....XX.....XX.         ",
"  .X.o.ooo.XXXX..XXXXXXXXXXXXXXXXXXXXXXXX.XXXX.oo.o..XXoo       ",
" .X.oo.oooo..X...XXXXXXXXXXXXXXXXXXXXXXXXO.X..ooo.oo.XX..       ",
" .X.ooo..oooo..XXXXXXXXXXXXXXXXXXXXXXXXXXOX.ooooo.ooo.XXXo      ",
" .X.o.o..ooooo.XXXXXXXXXXXXXXXXXXXXXX.XXXXX.ooooo.ooo.XXX.      ",
" .X.. ...oooo.XXXXXXXXX...XXXXXXXXXXX.XXXXX.ooo..oo..o.XX.      ",
" .X.  ...oooo.XXXXXXXOOOOO.XXXX..XXXXXXXXXX.ooo..o.  ....Xo     ",
" .X.  ...oooo.XXXXXXXOOOOO.XXXX..XXXXXXXXXX.ooo..o.  ....Xo     ",
"  ..   ..o...XXXXXXOOOOOOOO.XXX..XXXXXXXX.....o...     ..X.     ",
"       ...  .XXXXXOOOOOOOOOX.XXXX.XXXXXXXX.   ...        ..     ",
"            .XXXXooOOOOOOOOXX..XXX.XXXX...       .o.            ",
"            .XXOOOOoooOOOOXXXXX...XX...        ..XXX..o         ",
"           .oXXOOOOOOOooooXXXXXXXX..X.X          .XXXOO...      ",
"           .XXOOOOOOOOOOOOX.XXXXXXXXXX.           .XXXOOOOo     ",
"           .XXoOOOOOOOOOOO.XXXOOOXXXXXX...         .XXXOOOO.    ",
"           .XXoOOOOOOOOOOO.XXXOOOXXXXXX...         .XXXOOOO.    ",
"          .XXoOoooOOOOOooo.XXOXOOOXXXXXXXX..X      .XXXXXOOX.   ",
"          .XXoOOOOoooooOO.XXOXOOOOXXXXXXXOXOO.X     .XXXXOOO.   ",
"          .XX.OOOOOOOOO..XXXXOXOO.XXXXXXXXOXOOO..   .XXXXXOXX.  ",
"         .XXX.oOOOOOOO.XXXXXOXOXX.XXXXXXXOXOOOOOO.  .XXXXOXOX.  ",
"         .XXXX.oooOOOO.XXXXXXOXXX.XXXXXXXXOXOOOOOO..XXXXXXOXO.  ",
"         .XXXX.OOOooo.XXXXXXXXX..XXXXXXXXOXOOOOOOO.XXXXXXOXOXX. ",
"         .XXXX.OOOOOO.XXXXXXXXX..XXXXXXXXXOXOOOOOOOoXXXXXXOXXo. ",
"         .XXXX.OOOOOO.XXXXXXXXX..XXXXXXXXXOXOOOOOOOoXXXXXXOXXo. ",
"         .OXXXX..OOO.oXXXXXXXX.OOOXXX.XXXXXOXOXOOOO.XXXXXXXXXO. ",
"         .OXXXX..OO.OOoXXXXXX.OOOOoOX.XXXXXXOXOXXOXX.XXXXXXXoO. ",
"         .OOXXX...O..O.ooXXX.OOOOOoOO.XXXXXXXOXOOXOX.XXXXXXXOo. ",
"          .OXXX...oo..OOOo..OOOOOoOOO.XXXXXXXXXXXOXOX.XXXXXXO.  ",
"          .XXXX..X.OOO....OOOOOooOOOO.XXXXXXXXXXXXXXX.XXXXXoO.  ",
"           .XXXXX. .OOOOOOOOOooOOOOOOO.XXXXXXXXXXXXXX.XXXoOO.   ",
"            .X.... ..OOOOOOooOOOOOOOOO.XXXXXXXXXXXXXX.OOOoOo.   ",
"            .X.... ..OOOOOOooOOOOOOOOO.XXXXXXXXXXXXXX.OOOoOo.   ",
"             .OOO. .X.oooooOOOOOOOOOOoO..XXXXXXXXXXX.OOooOO.    ",
"              ...  .XX...OOOOOOOOOOOoOO..XXXXXXXXXXX..oOO..     ",
"                   .XXXXX.OOOOOOOOooOOOOO..XXXXXXXX.X....       ",
"                    .XXXXX..OOooooOOOOOOOoo..XXXX..XO.          ",
"                    .XXXXXXX.....OOOOOo....  ....XXXOO.         ",
"                     .XXXXXXXXXXX......       .XXXXXXO.         ",
"                      ...XXXXX...XXXX.        .XXXXXXX.         ",
"                      ...XXXXX...XXXX.        .XXXXXXX.         ",
"                         .....XXXXXXX.        .XXXXXXX.         ",
"                             .XXXXXXX.         ..X...X.         ",
"                              .ooXXoX.         ..oOoO.          ",
"                              .OOOoO.            .OoO.          ",
"                               ..OoO.             ...           ",
"                                 ...                            ",
"                                                                "
};
