/* XPM */
static char *_2412d6a1a594191eb8741eb00aa6483nSpzNNgiIlljMrdJ[] = {
/* columns rows colors chars-per-pixel */
"46 64 255 2 ",
"   c #080200",
".  c #140000",
"X  c #1A0100",
"o  c #170C02",
"O  c #13130E",
"+  c #220100",
"@  c #2A0702",
"#  c #32150C",
"$  c #2A2A22",
"%  c #362D2C",
"&  c #441106",
"*  c #512D15",
"=  c #782309",
"-  c #48342B",
";  c #533A26",
":  c #6B3728",
">  c #754907",
",  c #544D34",
"<  c #744B35",
"1  c #5C6C31",
"2  c #303940",
"3  c #2F5156",
"4  c #3B6068",
"5  c #4F4D46",
"6  c #755247",
"7  c #726357",
"8  c #44596F",
"9  c #46686C",
"0  c #476977",
"q  c #4A6B74",
"w  c #576D75",
"e  c #6D7073",
"r  c #9B0919",
"t  c #8F1811",
"y  c #AA0B0A",
"u  c #AF130D",
"i  c #A70716",
"p  c #AE031C",
"a  c #B50218",
"s  c #B2011D",
"d  c #912B1A",
"f  c #AA3300",
"g  c #B13504",
"h  c #961627",
"j  c #AC0622",
"k  c #B50525",
"l  c #A91524",
"z  c #93332A",
"x  c #B33B2B",
"c  c #D2351D",
"v  c #CD3B2A",
"b  c #D63A28",
"n  c #E13B2A",
"m  c #956511",
"M  c #915133",
"N  c #B34A2E",
"B  c #BC5837",
"V  c #906633",
"C  c #AE6E2F",
"Z  c #A86A3A",
"A  c #C3481F",
"S  c #CD4827",
"D  c #D64829",
"F  c #D6542E",
"G  c #D14C31",
"H  c #DA5735",
"J  c #E6482A",
"K  c #E54E34",
"L  c #EB5434",
"P  c #E85A37",
"I  c #CB633A",
"U  c #D9633B",
"Y  c #E7643D",
"T  c #95594E",
"R  c #916C53",
"E  c #A86A43",
"W  c #A97446",
"Q  c #B47647",
"!  c #AF6D51",
"~  c #B5785A",
"^  c #8F7567",
"/  c #B17662",
"(  c #D6574C",
")  c #C96746",
"_  c #D96945",
"`  c #CB744F",
"'  c #DB744C",
"]  c #DA7856",
"[  c #E76A45",
"{  c #EE6C4E",
"}  c #E7754B",
"|  c #E97A56",
" . c #F27A5A",
".. c #CA7864",
"X. c #F07C68",
"o. c #648D7F",
"O. c #EDBB0A",
"+. c #F7BD07",
"@. c #F5BE0A",
"#. c #C68C36",
"$. c #E4B436",
"%. c #EDC304",
"&. c #F5C304",
"*. c #F6C109",
"=. c #F6C518",
"-. c #E7C429",
";. c #958949",
":. c #B68C52",
">. c #958778",
",. c #B6856A",
"<. c #A78874",
"1. c #B18D70",
"2. c #B8977A",
"3. c #C68B47",
"4. c #CF9251",
"5. c #E68659",
"6. c #EC835C",
"7. c #F2875E",
"8. c #E6BD49",
"9. c #CE8E69",
"0. c #DA8765",
"q. c #C68B77",
"w. c #C9957A",
"e. c #D89675",
"r. c #E98966",
"t. c #ED8B6B",
"y. c #F48868",
"u. c #E69269",
"i. c #F5926D",
"p. c #E88B71",
"a. c #F18E71",
"s. c #ED9273",
"d. c #EB9A75",
"f. c #E89877",
"g. c #EE9C7B",
"h. c #F29475",
"j. c #F49A79",
"k. c #F19C7C",
"l. c #D6A76B",
"z. c #DAA876",
"x. c #ECA27E",
"c. c #E6AB79",
"v. c #F4A27D",
"b. c #E2B376",
"n. c #EBC443",
"m. c #F4D55D",
"M. c #F6D85A",
"N. c #F6CC68",
"B. c #FBCC6C",
"V. c #ECD66E",
"C. c #F5D464",
"Z. c #F9D465",
"A. c #F5D46C",
"S. c #FAD26B",
"D. c #F7DA6A",
"F. c #F5DA6D",
"G. c #FACA75",
"H. c #F5D472",
"J. c #F5D676",
"K. c #335DA7",
"L. c #5D5E8C",
"P. c #5D7784",
"I. c #7C6B8F",
"U. c #697A85",
"Y. c #757C86",
"T. c #4E808B",
"R. c #76838C",
"E. c #768E93",
"W. c #7B8A95",
"Q. c #848B95",
"!. c #8E9091",
"~. c #A99687",
"^. c #BB9C86",
"/. c #B0958F",
"(. c #BDA38C",
"). c #ABA499",
"_. c #BAA596",
"`. c #8B94A2",
"'. c #9799A6",
"]. c #A59BA9",
"[. c #9AA2AB",
"{. c #97ABB1",
"}. c #B9ACA2",
"|. c #BBB3A8",
" X c #A6A9B4",
".X c #A9AAB1",
"XX c #B4AAB7",
"oX c #CD958B",
"OX c #D39A87",
"+X c #E39E81",
"@X c #EC9E82",
"#X c #E6938C",
"$X c #F39E82",
"%X c #CBA68A",
"&X c #D6A78A",
"*X c #D9B786",
"=X c #C8A896",
"-X c #D7A996",
";X c #CBB49A",
":X c #D8B59A",
">X c #EDA384",
",X c #E6A984",
"<X c #ECA589",
"1X c #EDAB8C",
"2X c #F1A382",
"3X c #F8A887",
"4X c #F2A589",
"5X c #F2AB8C",
"6X c #EBB48B",
"7X c #F5B38C",
"8X c #E9AC94",
"9X c #F3AE92",
"0X c #ECB394",
"qX c #EBB89A",
"wX c #F3B394",
"eX c #FAB696",
"rX c #F2B69A",
"tX c #F3BA9D",
"yX c #C7B6A7",
"uX c #D6B8A6",
"iX c #CBB4B2",
"pX c #E5B8A4",
"aX c #EBBDA2",
"sX c #F8B6A6",
"dX c #F3BCA2",
"fX c #E8B3B4",
"gX c #F4D689",
"hX c #F3CE90",
"jX c #F4D695",
"kX c #F3DA9C",
"lX c #D1C7B2",
"zX c #E9C3A5",
"xX c #EDC4AA",
"cX c #F2C4AB",
"vX c #F5C4A8",
"bX c #E9D8A8",
"nX c #F6D5A3",
"mX c #F4DAA3",
"MX c #EBC6B6",
"NX c #F4CAB3",
"BX c #F5D1BA",
"VX c #9BBDC5",
"CX c #ADB9C6",
"ZX c #C7B9C3",
"AX c #BECEE8",
"SX c #D2D1C5",
"DX c #DDDCD5",
"FX c #EDD8CA",
"GX c #F8D7C5",
"HX c #E7DDDA",
"JX c #DDE2D7",
"KX c #E4E5DD",
"LX c #FEF1D4",
"PX c #D7EDE1",
"IX c #E8E5E1",
/* pixels */
"LXJ.F.F.F.F.D.D.D.D.D.D.F.F.F.F.F.F.F.D.D.F.F.D.F.D.D.D.F.F.F.F.F.F.F.F.H.F.F.F.F.F.F.A.J.LX",
"H.S.H.S.H.H.H.H.A.A.A.A.H.H.H.H.H.H.H.H.A.A.H.H.H.H.H.H.J.H.S.A.A.S.S.S.S.S.S.S.S.S.S.S.S.V.",
"D.A.E ! ! / ,.,.1.2.2.w.w.%X&X-X:XzXzXxXxXzXzXaXzXzXzXzXaXaXqXqX3XI I N F D N v N ) F G G.S.",
"D.H.R . <.^ <.2.<.(.=X. uX%Xo uXyXFXFXlX;XlXGXvXxXcXcXcXNXcXzXe.@ < ( . 9.X ` N / # 0.F G.S.",
"J.gXR ^ X , /.  /.  =X  |.%XlXiX5 iXSX  ~.yXMXaXxXcXNXMXcXcXeX]   & M + e.(   G * 6 : D G.H.",
"gXgX! ! ~ ~ ..^.,.q.w.w.OX&XqXpXuXpXxXzXaXaXaXzXzXxXxXcXe.9.0.] ] ` U I F S K G N z x b gXJ.",
"jXjX9.%X).).).}.}.|.|.lXlXlXSXSXSXSXJXJXJXJXKXKXKXKXIXKXJXKXDXDXSXSXSXlXyX}.).~.!.^ ^ b hXgX",
"mXmXv ,.s s s s s s s s s s s s s s s s s s s s a a s s s s s s s s s s s s a 6X4.R >.b jXjX",
"mXnXv q.s s p p p p p p p p p s p a p s p p j j s s p a j a p s p s p s p s a M V 2 >.b nXkX",
"mXnXv OXp p p p p j i i r r r l l a p p p p p p p l p.` z...t r k p p s p p p j V 3 ~.b nXkX",
"mXnXD -Xp p r #XMXuX=X/._.}.=XuXzXl s s s s h z M 9.l.LXl.N k d d k p t t s s k Q 3 /.K nXkX",
"bXnXv 8X#XfXiXiXXXXX'.'.'.`.`.Q.*Xi s s s h z.M b.z.l.^ W Z = p l p.! l p p p j W 3 /.b nXkX",
"mXnXv 8XZXZXiXXXXX].].'.`.`.W.Q.rXg g g f ..b.b.z.l.l.l.Z E Z d d f g g g g f = < 3 _.n nXkX",
"mXnXG -XZXZXXXXX.X].'.`.Q.Q.W.Q.:.+.*.*.@.#.~ ~ E 9.z.Z Z Z E O.%.*.+.@.@.+.O.l.5 4 _.n nXjX",
"kXjXG pXCXCXXX X].'.'.`.Y.R.W.Y.6X&.@.@.+.*.3.~ Q E E W Z Z Z @.@.@.@.@.@.&.m < 8 9 }.G hXhX",
"gXhXH pXXXXX X X'.'.`.Q.Q.R.Y.Y.z.=.@.@.@.+.%.:.Q Q Q Z Z Z Z @.@.@.*.@.&.$.:.8 4 9 }.v hXgX",
"J.J.H pX X X X[.'.`.`.Q.R.R.Y.Y.R C @.@.@.@.&.O.#.W T V Z Z E $.*.&.&.&.$.u.w 9 9 0 |.b hXH.",
"J.J.U pX X[.[.[.'.`. XQ.Q.R.Y.U.e *XO.%.*.*.*.@.*.;.2./.W Z Q > %.@.+.m 4.0 9 0 0 0 |.b G.A.",
"H.A.U :X[.'.[.'.`. X`.Q.W.R.Y.U.U.7 l.=.&.&.*.@.*.V /.~.2.9.4.9.=.=.kXV 4 q q q q 0 yXb G.N.",
"H.A._ uX[.'.'.'.VXCXQ.W.W.R.Y.Y.U.w 6 z.=.&.*.@.@.2.^.~.yX9.4.4.9.! U.w 9 q 0 q q 0 |.b G.C.",
"N.N._ :X8.n.;.VXVXY.`.W.W.R.R.U.U.U.P.e <.4.#.-.> (.2.;XyX%X3.4.4.1.8 q q 0 q q q q yXb G.C.",
"S.S._ :X&.+.O.-.CXW.Q.W.W.R.R.U.U.U.U.P.w w w < 2.:XlX;XlXlX4.4.3.4.4., 0 9 0 0 E.E.}.b G.C.",
"Z.S.H -X*.*.&.@.:.>.Q.!.W.R.R.R.R.U.U.U.P.P.7 V !.>.uX;X;XMX3.C 4.3.3.4., o., -.O.+.}.D B.C.",
"Z.S.F -X&.&.&.&.=.+.&.*.+.@.-.1 {.U.U.P.e 2.3.3.W >.(.uX;XlXZ 3.C #.3.b.4.%.O.&.&.%.).b B.C.",
"Z.S.D OXi i i i u y y y y y y y u d [.T.,.3.Q Z Z !.; (.;XzX> 3.#.#.#.#.c.t i y y u _.b B.C.",
"Z.S.b oXs s s s s s s s a a p a j p s h M Z Z Z Z SXlX* :XzXV 3.C C C 3.3.! s k k a _.D B.C.",
"Z.S.c oXs s p p p s s s s s p p s s s s i M W E Z =X;X;X; ;X:.C C m #.4.,.~.p p p p ~.H B.C.",
"Z.S.c oXs s p p s s s s s s p p s p s p p l <./._._.=X(.=X$ ^ ; ; * Z :.^ XXa p s p ~._ N.C.",
"A.B.c q.s s p p s s s s s s p p s s p p p oX(.^ <.(.(.(.(.<.!.$ % % '.O '.7 k a s p ~.' B.m.",
"C.B.c 1.p k i i p p p p p p i i p p p p a <.^.^.(.^.^.^.^.^.@ - O 5 e % % % - h a r !.] B.C.",
"C.B.b GX  IX.X% % KXJX.XKXKXIXIXKXKXKXIXIXKXKXHXHXHXHXHXHXSXIXDXIXHXDXIXKXHXDXDXHXPXSX' B.C.",
"C.B.] OX~.~.~.>._.yX/ 2.w.q.-X%X-X:X-X%X%X:X:X-X-X=X%X&XOXOXq.q.,.9.~ ~ ~ ~ ~ ! ~ e.2X_ B.C.",
"C.B.c b b D G N r.r.X.r.a.s.f.f.<X1X8XeXqXqXdXdXtXrX9X5Xk.j.a.t.r.X. . . . . .X.y.r.a._ B.C.",
"C.B.D n K n G | r.h.t.f.t.s.3Xv.2X2X1XeX9X8X9XeX7X,X>Xf.h.i.y.y.6.|  .| | |  .6.5.6.i.H B.Z.",
"C.N.D [ [ J B t.h.1Xt.5Xd.f.6Xh.c.,X3Xf.7X3X>X<Xc.>Xv.e.h.s.r.r.y.| 6. . .6. .5.7. .y.H B.C.",
"Z.S.D D D J N a.t.t.a.f.j.p.+     . fX  @   v.+ #XX o R ,.  X . i.5.6.6.6. .+ e.# & 7.D B.Z.",
"C.B.F U { K B s.g.5Xs.2Xv.6XMX@   x.-X  X fX@XX OX. X ~ 7 . + 9.p.y.6.6.6.y.. 0.& & y.H B.m.",
"C.B.H P P K N i.f.3Xj.@X@X4X<Xf.,Xf.5X$X4X3Xf.h.j.s.s.s.h.h.h.h.a.t.r.y.r.t.y.y.y.y.y.H B.C.",
"C.N.F H Y L N e.R -X: 8XOX@ 6 & : oX: T pXaX&Xf.h.s.s.j.j.h.j.j.h.a.t.t.a.t.a.a.a.a.i.[ B.C.",
"N.N.U } } P B g.<XwXg.eX<X<XrX<Xk.k.k.k.g.2Xh.g.d.d.j.k.$Xh.h.h.s.a.t.a.h.s.h.s.s.f.k.U B.C.",
"N.B.U P P P B k.f.x.g.g.@X>X<X@Xk.k.k.k.g.g.h.g.g.g.2X2X2Xk.g.k.s.a.t.a.s.h.s.h.j.x.k._ B.C.",
"A.N.U _ y.[ E x.,XwX>X9X2X<XrX+Xk.k.k.k.g.g.g.g.x.2X>X4X2X2X4X@Xg.s.s.s.h.s.h.g.k.g.3X' B.C.",
"J.G._ | } [ ) g.2X<X@XwX@X<XwX>Xk.k.k.k.@X$X2X>X2X2X5X5X5X5X5X>Xx.k.j.s.h.h.h.g.2Xg.3X] G.H.",
"gXgX_ }  .[ B >X<X1X>X<X4X4XwX1X<X<X<X4X2Xx.>X5X8X1X1X9XrXwXwXwX<X>Xf.f.s.f.j.@X$X>X3X] gXJ.",
"jXjX' r.u.| ) 1X5Xg.,XwXk.qXtX9X1XrX<X5X1X8X5X>X5XqXwXwXrXtXtXrXwX5X>X2Xg.k.3Xf.5X5X3X] gXgX",
"kXnX| fXX.( : ) sX# I -Xq.4XuX:X; pX. 9XX uX: . o + , - . X cXdXdXrXwX8X9X+X+ =XX wX9X5.kXkX",
"kXnXy.# % ..! & T 6 E O % 0XxX. * -X. wXX -X* <.# X ; . + . GXNXdXdXdXtXrX1X@ pX/ rX9X5.nXkX",
"kXmX,XrX8XaXw.GXpXsXvXBX8X0XcXrX0XwX8X,XrX0XvXNXvXcXMXNXBXGXGXBXcXNXxXtXcXdXdXrXrXrXwXu.nXnX",
"mXnX6XqXzXcXw.MX. X uX# + < :XX uX=XfXMX# < pXMX# . GXX FXFXFX_.FX6 # aXdXdXdXtXrXrXwXu.nXmX",
"nXnXqXpXNXNX^.BXMXMXxXNXtXdXNX8X9X1X9XwXwXwXtXdXvXvXcXNXBXBXBXBXcXcXcXvXtXtXtXrXrXrXwXu.nXkX",
"kXkXqXNXBXcX2.BXBXMXxXaXrX0X8X1X<X<X<X5X0X0XtXdXcXcXvXvXcXNXNXcXcXcXaXdXtXdXtXtXrXtXwX0.kXkX",
"jXgX,X&XNXqX,.NXxXxXcXaXqX0XcX>Xf.>X>X>X<XwXwXwXtXdXtXtXtXvXdXdXtXtXdXtXrXrXrXtXrXrXeXu.gXgX",
"J.J.x.wX,Xf.,.aXNXcXaXNXqXqXvX2Xx.x.g.2X4X4X5X5X9X1X1X1X1X0XwXrXtXtXrXrXrXrX0X0XrXrXeXu.gXJ.",
"A.A.u.s.r.5.Q 1X0XrXrXtXwX0X1Xx.>X>Xx.x.x.k.h.k.2Xx.2Xx.x.2X1XwXrXrXrXwX9X9XwXwXrXrXrXu.G.A.",
"A.S.5.r.h.' E <X0XvXqXvXtXqXvX<X1X5X2Xx.g.f.f.k.g.g.f.g.g.@X<X1X5XwX1X1X5X5X5XwXwXrXeXu.N.C.",
"Z.C.[ } [ Y B >X1X0XwX0X0X0XqX9X1X0X5X>Xd.d.f.f.s.h.h.h.j.k.2X3X5X5X2X>X>Xg.k.2X5XwX7Xu.N.m.",
"Z.Z.U U Y Y ) 0.f.+Xf.f.f.f.e.0.0.0.0.0.] ] ] ] _ _ _ _ _ _ ) ] 0.0.] ] r.r.r.s.s.s.` 5.S.m.",
"Z.S.F { [ [ f.M * OXM +X} 5.k.r.r.r.r.Q ~ d ! | P P L K L L P Y ) z N { d H P Y [ {  .| S.C.",
"Z.S.H H P U v.rXAXL.| } 5.| 5.6.r.r.6.y.*X1 6X1X8X9Xh.{ L L P P Y Y FX,.L L L P P Y [ ' S.C.",
"C.S.D [ r.>XxXiX2 K.E 9.! eX5.| 5.r.eXeX  $ 1.; ^ 8Xk._ L K L P P ] $ SXJ J K L L L Y _ S.C.",
"Z.S.F H r.$X2X8X8 I.v.| y.7.} [ [ } 6.5.;.1 5.7X&Xh.P L L L L L P P R M J J J J J K P _ S.C.",
"A.Z.A S D D S H I _ _ _ ' ' _ _ U } 6.= X 9./ / ) U Y F H F F F F F F D D S S D S S S N G.Z.",
"F.C.m.m.M.M.m.C.C.m.C.C.C.C.m.C.C.m.Z.Z.m.C.m.m.Z.M.m.m.m.m.m.m.Z.M.M.M.M.M.M.M.M.M.M.M.M.H.",
"MXV.C.Z.D.D.m.m.C.C.C.C.A.A.A.A.A.A.A.A.C.C.S.C.m.m.C.C.C.Z.C.C.A.A.C.C.m.m.m.m.m.M.M.m.m.lX"
};
